<?xml version="1.0" encoding="utf-8"?>
<svg viewBox="133.795 48.258 206.065 393.785" xmlns="http://www.w3.org/2000/svg">
  <g transform="matrix(1, 0, 0, 1, -271.230351, 113.928301)">
    <path style="fill:#ffffff; stroke:none;" d="M 474.658 115.672 C 479.034 123.113 488.965 144.431 475.861 147.296 C 457.806 151.244 436.158 145.151 424.33 130.671 C 419.054 124.213 413.964 116.987 412.478 108.672 C 411.847 105.142 411.403 100.943 414.296 98.235 C 417.278 95.444 422.98 94.722 426.862 94.111 C 446.127 91.079 464.792 98.895 474.658 115.672 Z M 585.862 93.711 C 590.826 93.931 599.791 94.797 603.12 98.975 C 607.386 104.331 603.264 114.757 600.105 119.672 C 591.058 133.751 579.963 144.47 562.862 147.346 C 556.176 148.471 549.551 148.536 542.862 147.607 C 540.228 147.241 536.488 146.648 534.929 144.173 C 532.527 140.359 535.673 131.594 536.888 127.672 C 542.53 109.442 554.927 97.482 573.862 94.136 C 577.76 93.447 581.917 93.537 585.862 93.711 Z M 474.247 41.672 C 478.514 49.102 487.581 69.515 474.861 72.296 C 456.806 76.244 435.158 70.151 423.33 55.671 C 418.054 49.213 412.964 41.987 411.478 33.672 C 410.847 30.142 410.403 25.943 413.296 23.235 C 416.543 20.195 422.661 19.703 426.862 19.1 C 446.367 16.3 464.511 24.719 474.247 41.672 Z M 586.862 18.711 C 591.826 18.931 600.791 19.797 604.12 23.975 C 608.386 29.331 604.264 39.757 601.105 44.672 C 592.058 58.751 580.963 69.47 563.862 72.346 C 557.176 73.471 550.551 73.536 543.862 72.607 C 541.228 72.241 537.488 71.648 535.929 69.173 C 533.527 65.359 536.673 56.594 537.888 52.672 C 543.53 34.442 555.927 22.482 574.862 19.136 C 578.76 18.447 582.917 18.537 586.862 18.711 Z M 519.862 30.672 L 519.862 209.672 L 577.862 209.672 C 587.935 209.672 598.387 209.835 605.073 218.712 C 612.484 228.552 610.862 240.071 610.862 251.672 L 610.862 287.672 C 610.862 294.155 611.722 301.347 610.101 307.672 C 607.081 319.46 597.068 327.338 584.862 327.657 C 545.922 328.677 506.817 327.672 467.862 327.672 L 440.862 327.672 C 432.861 327.672 424.977 327.871 417.901 323.462 C 411.835 319.682 407.215 312.734 406.163 305.672 C 404.428 294.026 406.08 281.437 405.848 269.672 C 405.599 256.987 403.938 242.178 406.191 229.672 C 407.292 223.564 411.888 218.046 416.866 214.577 C 425.622 208.475 435.727 209.672 445.862 209.672 L 497.862 209.672 L 497.862 30.672 L 519.862 30.672 Z M 435.862 111.672 C 439.861 120.004 451.939 127.13 460.862 128.672 C 456.851 118.325 445.961 114.008 435.862 111.672 Z M 555.862 128.672 C 564.786 127.13 576.863 120.004 580.862 111.672 C 570.763 114.008 559.873 118.325 555.862 128.672 Z M 430.01 230.7 C 425.065 233.628 426.862 242.844 426.862 247.672 L 426.862 289.672 C 426.862 294.774 425.517 302.304 430.206 305.814 C 433.41 308.213 438.102 307.671 441.862 307.672 L 574.862 307.672 C 578.813 307.67 583.302 308.068 586.714 305.663 C 591.231 302.479 589.862 295.479 589.862 290.672 L 589.862 247.672 C 589.862 242.803 591.566 233.867 586.634 230.851 C 583.41 228.88 578.469 229.672 574.862 229.672 L 440.862 229.672 C 437.543 229.672 432.994 228.933 430.01 230.7 Z M 434.862 36.672 C 438.861 45.004 450.939 52.13 459.862 53.672 C 455.824 43.256 445.007 38.998 434.862 36.672 Z M 556.862 53.672 C 565.786 52.13 577.863 45.004 581.862 36.672 C 571.763 39.008 560.873 43.325 556.862 53.672 Z M 520.862 -64.235 C 530.612 -61.147 539.189 -55.792 545.224 -47.328 C 563.32 -21.948 546.556 15.006 516.862 21.282 C 491.879 26.563 467.617 3.948 465.953 -20.328 C 464.983 -34.484 472.874 -49.192 483.862 -57.647 C 488.808 -61.454 494.731 -63.76 500.862 -64.863 C 506.949 -65.959 514.942 -66.11 520.862 -64.235 Z M 502.862 -43.839 C 479.538 -38.447 485.677 -5.144 504.639 -0.805 C 507.166 -0.227 509.92 -0.163 512.862 -0.748 C 531.158 -4.385 538.469 -29.438 522.847 -40.858 C 517.516 -44.755 509.152 -45.293 502.862 -43.839 Z"/>
  </g>
</svg>